<?xml version="1.0" encoding="iso-8859-1"?>
<!-- Uploaded to: SVG Repo, www.svgrepo.com, Generator: SVG Repo Mixer Tools -->
<svg height="800px" width="800px" version="1.1" id="Layer_1" xmlns="http://www.w3.org/2000/svg" xmlns:xlink="http://www.w3.org/1999/xlink" 
	 viewBox="0 0 512 512" xml:space="preserve">
<circle style="fill:#C89173;" cx="256" cy="256" r="238.345"/>
<circle style="fill:#D7A07D;" cx="256" cy="256" r="114.759"/>
<path style="fill:#C89173;" d="M343.091,181.394c-3.838-4.476-8.009-8.647-12.484-12.484l-65.779,65.779v-93.001
	c-2.923-0.223-5.847-0.446-8.828-0.446c-2.98,0-5.905,0.223-8.828,0.446v93.001l-65.779-65.779
	c-4.476,3.838-8.647,8.009-12.484,12.484l65.779,65.779h-93.001c-0.223,2.923-0.446,5.847-0.446,8.828
	c0,2.98,0.223,5.905,0.446,8.828h93.001l-65.779,65.779c3.838,4.476,8.009,8.647,12.484,12.483l65.779-65.779v93.001
	c2.923,0.223,5.847,0.446,8.828,0.446c2.98,0,5.905-0.223,8.828-0.446v-93.001l65.779,65.779c4.476-3.838,8.647-8.009,12.484-12.483
	l-65.779-65.779h93.001c0.223-2.923,0.446-5.847,0.446-8.828c0-2.98-0.223-5.905-0.446-8.828h-93.001L343.091,181.394z"/>
<circle style="fill:#464655;" cx="256" cy="256" r="35.31"/>
<g>
	<path style="fill:#D7A07D;" d="M256,70.621c-4.879,0-8.828-3.953-8.828-8.828V35.31c0-4.875,3.948-8.828,8.828-8.828
		c4.879,0,8.828,3.953,8.828,8.828v26.483C264.828,66.668,260.879,70.621,256,70.621z"/>
	<path style="fill:#D7A07D;" d="M256,485.517c-4.879,0-8.828-3.948-8.828-8.828v-26.483c0-4.879,3.948-8.828,8.828-8.828
		c4.879,0,8.828,3.948,8.828,8.828v26.483C264.828,481.569,260.879,485.517,256,485.517z"/>
	<path style="fill:#D7A07D;" d="M476.69,264.828h-26.483c-4.879,0-8.828-3.948-8.828-8.828c0-4.879,3.948-8.828,8.828-8.828h26.483
		c4.879,0,8.828,3.948,8.828,8.828C485.517,260.879,481.569,264.828,476.69,264.828z"/>
	<path style="fill:#D7A07D;" d="M61.793,264.828H35.31c-4.879,0-8.828-3.948-8.828-8.828c0-4.879,3.948-8.828,8.828-8.828h26.483
		c4.879,0,8.828,3.948,8.828,8.828C70.621,260.879,66.673,264.828,61.793,264.828z"/>
	<path style="fill:#D7A07D;" d="M393.327,127.505c-2.259,0-4.518-0.862-6.241-2.586c-3.448-3.444-3.448-9.035,0-12.483
		l18.724-18.729c3.448-3.448,9.035-3.448,12.483,0c3.448,3.444,3.448,9.035,0,12.482l-18.724,18.729
		C397.845,126.643,395.586,127.505,393.327,127.505z"/>
	<path style="fill:#D7A07D;" d="M99.948,420.879c-2.259,0-4.518-0.862-6.241-2.586c-3.448-3.448-3.448-9.035,0-12.483l18.724-18.724
		c3.448-3.448,9.035-3.448,12.483,0s3.448,9.035,0,12.483l-18.724,18.724C104.466,420.018,102.207,420.879,99.948,420.879z"/>
	<path style="fill:#D7A07D;" d="M412.052,420.879c-2.259,0-4.518-0.862-6.241-2.586l-18.724-18.724
		c-3.448-3.448-3.448-9.035,0-12.483s9.035-3.448,12.483,0l18.724,18.724c3.448,3.448,3.448,9.035,0,12.483
		C416.569,420.018,414.311,420.879,412.052,420.879z"/>
	<path style="fill:#D7A07D;" d="M118.673,127.505c-2.259,0-4.518-0.862-6.241-2.586l-18.724-18.729
		c-3.448-3.448-3.448-9.038,0-12.482c3.448-3.448,9.035-3.448,12.482,0l18.724,18.729c3.448,3.448,3.448,9.038,0,12.483
		C123.19,126.643,120.931,127.505,118.673,127.505z"/>
</g>
<path style="fill:#9B5A50;" d="M256,0C114.615,0,0,114.615,0,256s114.615,256,256,256s256-114.615,256-256S397.385,0,256,0z
	 M256,476.69c-121.884,0-220.69-98.806-220.69-220.69S134.116,35.31,256,35.31S476.69,134.116,476.69,256S377.884,476.69,256,476.69
	z"/>
<path style="fill:#AA6455;" d="M256,512C114.845,512,0,397.155,0,256C0,114.84,114.845,0,256,0s256,114.84,256,256
	C512,397.155,397.155,512,256,512z M256,17.655C124.577,17.655,17.655,124.577,17.655,256S124.577,494.345,256,494.345
	S494.345,387.423,494.345,256S387.423,17.655,256,17.655z"/>
<path style="fill:#464655;" d="M149.981,212.039c-5.65,13.506-8.739,28.425-8.739,43.961H88.276c0-22.687,4.502-44.403,12.8-64.177
	L149.981,212.039z"/>
<path style="fill:#FF6464;" d="M256,88.276v52.966c-15.537,0-30.455,3.09-43.961,8.739l-20.215-48.905
	C211.597,92.778,233.313,88.276,256,88.276z"/>
<path style="fill:#464655;" d="M212.039,149.981c-14.036,5.826-26.659,14.389-37.164,24.894l-37.429-37.429
	c15.36-15.448,33.81-27.895,54.378-36.37L212.039,149.981z"/>
<path style="fill:#FF6464;" d="M174.874,174.874c-10.505,10.505-19.068,23.128-24.894,37.164l-48.905-20.215
	c8.474-20.568,20.921-39.018,36.37-54.378L174.874,174.874z"/>
<path style="fill:#9BDC6E;" d="M362.019,212.039c5.65,13.506,8.739,28.425,8.739,43.961h52.966c0-22.687-4.502-44.403-12.8-64.177
	L362.019,212.039z"/>
<path style="fill:#464655;" d="M256,88.276v52.966c15.537,0,30.455,3.09,43.961,8.739l20.215-48.905
	C300.403,92.778,278.687,88.276,256,88.276z"/>
<path style="fill:#FF6464;" d="M299.961,149.981c14.036,5.826,26.659,14.389,37.164,24.894l37.429-37.429
	c-15.36-15.448-33.81-27.895-54.378-36.37L299.961,149.981z"/>
<g>
	<path style="fill:#464655;" d="M337.126,174.874c10.505,10.505,19.068,23.128,24.894,37.164l48.905-20.215
		c-8.474-20.568-20.921-39.018-36.37-54.378L337.126,174.874z"/>
	<path style="fill:#464655;" d="M362.019,299.961c5.65-13.506,8.739-28.425,8.739-43.961h52.966c0,22.687-4.502,44.403-12.8,64.177
		L362.019,299.961z"/>
</g>
<path style="fill:#FF6464;" d="M256,423.724v-52.966c15.537,0,30.455-3.09,43.961-8.739l20.215,48.905
	C300.403,419.222,278.687,423.724,256,423.724z"/>
<path style="fill:#464655;" d="M299.961,362.019c14.036-5.826,26.659-14.389,37.164-24.894l37.429,37.429
	c-15.36,15.448-33.81,27.895-54.378,36.37L299.961,362.019z"/>
<g>
	<path style="fill:#FF6464;" d="M337.126,337.126c10.505-10.505,19.068-23.128,24.894-37.164l48.905,20.215
		c-8.474,20.568-20.921,39.018-36.37,54.378L337.126,337.126z"/>
	<path style="fill:#FF6464;" d="M149.981,299.961c-5.65-13.506-8.739-28.425-8.739-43.961H88.276c0,22.687,4.502,44.403,12.8,64.177
		L149.981,299.961z"/>
</g>
<path style="fill:#464655;" d="M256,423.724v-52.966c-15.537,0-30.455-3.09-43.961-8.739l-20.215,48.905
	C211.597,419.222,233.313,423.724,256,423.724z"/>
<path style="fill:#FF6464;" d="M212.039,362.019c-14.036-5.826-26.659-14.389-37.164-24.894l-37.429,37.429
	c15.36,15.448,33.81,27.895,54.378,36.37L212.039,362.019z"/>
<path style="fill:#464655;" d="M174.874,337.126c-10.505-10.505-19.068-23.128-24.894-37.164l-48.905,20.215
	c8.474,20.568,20.921,39.018,36.37,54.378L174.874,337.126z"/>
<path style="fill:#EFF2FA;" d="M326.621,247.172h-61.793v-61.793c0-4.875-3.953-8.828-8.828-8.828s-8.828,3.953-8.828,8.828v61.793
	h-61.793c-4.875,0-8.828,3.953-8.828,8.828s3.953,8.828,8.828,8.828h61.793v61.793c0,4.875,3.953,8.828,8.828,8.828
	s8.828-3.953,8.828-8.828v-61.793h61.793c4.875,0,8.828-3.953,8.828-8.828S331.496,247.172,326.621,247.172z"/>
<g>
	<circle style="fill:#D7DEED;" cx="256" cy="185.379" r="13.241"/>
	<circle style="fill:#D7DEED;" cx="256" cy="326.621" r="13.241"/>
	<circle style="fill:#D7DEED;" cx="256" cy="256" r="17.655"/>
	<circle style="fill:#D7DEED;" cx="185.379" cy="256" r="13.241"/>
	<circle style="fill:#D7DEED;" cx="326.621" cy="256" r="13.241"/>
</g>
</svg>