<?xml version="1.0" encoding="utf-8"?>
<!-- Generator: Adobe Illustrator 26.0.0, SVG Export Plug-In . SVG Version: 6.00 Build 0)  -->
<svg version="1.1" id="Layer_1" xmlns="http://www.w3.org/2000/svg" xmlns:xlink="http://www.w3.org/1999/xlink" x="0px" y="0px"
	 viewBox="0 0 1366 250" style="enable-background:new 0 0 1366 250;" xml:space="preserve">
<g>
	<g>
		<g>
			<path d="M271.4,34.3h131.5v29.8h-97.3v43.5h64.8v29.8h-64.8V186h100.3v29.8H271.4V34.3z"/>
			<path d="M402.9,86.8h35l30.6,89.9l28.4-89.9h33.9l-47,129h-31.4L402.9,86.8z"/>
			<path d="M531.9,151.6c0-39.4,27.3-67.2,66.4-67.2c38.8,0,66.2,27.9,66.2,67.2c0,38.8-27.9,66.7-67,66.7
				C558.7,218.3,531.9,190.9,531.9,151.6z M630.1,152.4v-1.1c0-24.6-12-39.4-31.7-39.4c-20,0-32,14.8-32,39.4v1.1
				c0,24.1,11.7,38.3,31.4,38.3C617.8,190.7,630.1,176.4,630.1,152.4z"/>
			<path d="M686.4,31.8h34.2v184h-34.2V31.8z"/>
			<path d="M746.5,164.1V86.8h33.9v75.4c0,17.2,8.2,27.3,23.5,27.3c17.8,0,25.2-15,25.2-37.2V86.8H863v129h-33.9v-18.3
				c-6.8,13.4-18.6,20.8-35.3,20.8C764.6,218.3,746.5,197.5,746.5,164.1z"/>
			<path d="M900.4,181.6v-67.5h-18.3V86.8h18.3V62.4l33.1-18.6v42.9h25.4v27.3h-25.7v64.2c0,6.3,3,9,9.3,9.3h15v28.2h-26.2
				C906.4,214.4,901,203,900.4,181.6z"/>
			<path d="M980.8,34.8h35.3v33.1h-35.3V34.8z M981.3,86.8h34.2v129h-34.2L981.3,86.8L981.3,86.8z"/>
			<path d="M1037.4,151.6c0-39.4,27.3-67.2,66.4-67.2c38.8,0,66.2,27.9,66.2,67.2c0,38.8-27.9,66.7-67,66.7
				C1064.2,218.3,1037.4,190.9,1037.4,151.6z M1135.5,152.4v-1.1c0-24.6-12-39.4-31.7-39.4c-20,0-32,14.8-32,39.4v1.1
				c0,24.1,11.7,38.3,31.4,38.3C1123.2,190.7,1135.5,176.4,1135.5,152.4z"/>
			<path d="M1191.6,86.8h33.9v21c6.8-15,19.4-23.8,37.7-23.8c28.2,0,44.8,18.9,44.8,54.4v77.4h-33.9v-75.4c0-18-6.8-27.3-22.7-27.3
				c-16.1,0-26,13.1-26,37.2v65.6h-33.9L1191.6,86.8L1191.6,86.8z"/>
		</g>
	</g>
	<g>
		<g>
			<g>
				<path d="M191.6,51C160.7,10.3,104.6-1.2,58,23.7c18.2,40.9,31.8,89,121.5,91.8c10.5,0.3,22.1,0,34.8-1
					C212.5,88.8,204.1,67.5,191.6,51"/>
				<path d="M175.1,134.7c-54,2.7-79.3,22.3-95.1,46.6c-9.3,14.3-15.3,30.1-22,45c65.4,34.9,149.9-1.9,156.3-90.9
					C199.8,134.3,186.7,134.1,175.1,134.7"/>
			</g>
		</g>
	</g>
</g>
</svg>
